<svg width="23" height="23" viewBox="0 0 23 23" fill="none" xmlns="http://www.w3.org/2000/svg">
<path fill-rule="evenodd" clip-rule="evenodd" d="M11.391 13.8131L11.4992 13.8131L11.7413 13.8139C13.5914 13.8261 17.8195 14.013 17.8195 16.8788C17.8195 19.7258 13.7388 19.9114 11.7701 19.9235L11.0407 19.9235C9.19046 19.9114 4.96154 19.7247 4.96154 16.8625C4.96154 14.012 9.19046 13.8261 11.0407 13.8139L11.2828 13.8131C11.3203 13.8131 11.3564 13.8131 11.391 13.8131ZM11.391 15.2506C9.114 15.2506 6.39904 15.5304 6.39904 16.8625C6.39904 18.1644 8.95195 18.4688 11.1829 18.4861L11.391 18.4869C13.668 18.4869 16.382 18.208 16.382 16.8788C16.382 15.5333 13.668 15.2506 11.391 15.2506ZM19.0132 13.4242C21.3352 13.7721 21.823 14.8627 21.823 15.7165C21.823 16.2379 21.618 17.1895 20.2475 17.7118C20.1632 17.7434 20.077 17.7587 19.9917 17.7587C19.7022 17.7587 19.4291 17.5824 19.3199 17.2959C19.178 16.925 19.3649 16.5091 19.7358 16.3682C20.3855 16.1209 20.3855 15.8478 20.3855 15.7165C20.3855 15.2968 19.8517 15.0035 18.7995 14.8464C18.4075 14.7869 18.1363 14.4218 18.1948 14.0279C18.2532 13.635 18.6174 13.3734 19.0132 13.4242ZM4.58626 14.0279C4.64472 14.4218 4.37351 14.7869 3.98155 14.8464C2.9293 15.0035 2.39551 15.2968 2.39551 15.7165C2.39551 15.8478 2.39551 16.12 3.04622 16.3682C3.41709 16.5091 3.60397 16.925 3.46213 17.2959C3.35288 17.5824 3.07976 17.7587 2.79034 17.7587C2.70505 17.7587 2.6188 17.7434 2.53447 17.7118C1.16309 17.1885 0.958008 16.2369 0.958008 15.7165C0.958008 14.8636 1.4458 13.7721 3.7688 13.4242C4.16459 13.3744 4.52684 13.635 4.58626 14.0279ZM11.391 3.83301C13.806 3.83301 15.7696 5.79759 15.7696 8.21163C15.7696 10.6257 13.806 12.5903 11.391 12.5903H11.3651C10.196 12.5864 9.10058 12.1283 8.28025 11.3003C7.458 10.4733 7.00854 9.37505 7.0133 8.20876C7.0133 5.79759 8.97696 3.83301 11.391 3.83301ZM11.391 5.27051C9.7695 5.27051 8.45081 6.59013 8.45081 8.21163C8.44796 8.99747 8.74888 9.73251 9.29992 10.2874C9.85096 10.8423 10.585 11.1499 11.367 11.1528L11.391 11.8715V11.1528C13.0125 11.1528 14.3321 9.83409 14.3321 8.21163C14.3321 6.59013 13.0125 5.27051 11.391 5.27051ZM17.3221 4.7717C19.0069 5.04865 20.2307 6.48999 20.2307 8.1987C20.2268 9.9189 18.9417 11.3947 17.2407 11.6334C17.2071 11.6382 17.1736 11.6401 17.141 11.6401C16.7883 11.6401 16.4807 11.3804 16.4299 11.021C16.3753 10.6271 16.6484 10.2639 17.0423 10.2093C18.039 10.0694 18.7913 9.20495 18.7932 8.19678C18.7932 7.19724 18.0763 6.35199 17.0883 6.19003C16.6973 6.12582 16.4318 5.7559 16.496 5.36395C16.5612 4.97199 16.9283 4.7094 17.3221 4.7717ZM6.28596 5.36395C6.35017 5.7559 6.08471 6.12582 5.69371 6.19003C4.70567 6.35199 3.98883 7.19724 3.98883 8.1987C3.99075 9.20495 4.74304 10.0703 5.73875 10.2093C6.13262 10.2639 6.40575 10.6271 6.35112 11.021C6.30033 11.3804 5.99271 11.6401 5.64004 11.6401C5.60746 11.6401 5.57392 11.6382 5.54037 11.6334C3.83933 11.3947 2.55517 9.9189 2.55133 8.20061C2.55133 6.48999 3.77512 5.04865 5.45987 4.7717C5.86333 4.70845 6.22079 4.9739 6.28596 5.36395Z" fill="#2B2D32"/>
</svg>
