<svg width="23" height="23" viewBox="0 0 23 23" fill="none" xmlns="http://www.w3.org/2000/svg">
<path d="M11.4518 13.9345C14.74 13.9345 17.5477 14.4558 17.5477 16.5418C17.5477 18.627 14.758 19.1673 11.4518 19.1673C8.16359 19.1673 5.3559 18.646 5.3559 16.5608C5.3559 14.4747 8.14557 13.9345 11.4518 13.9345ZM16.7093 12.6783C17.9664 12.655 19.3179 12.8276 19.8173 12.9502C20.8753 13.1582 21.5712 13.5828 21.8595 14.1999C22.1032 14.7066 22.1032 15.2943 21.8595 15.8001C21.4185 16.7572 19.9966 17.0645 19.444 17.1439C19.3299 17.1612 19.2381 17.0619 19.2501 16.9471C19.5324 14.2949 17.2868 13.0374 16.7058 12.7482C16.6809 12.7353 16.6758 12.7154 16.6784 12.7034C16.6801 12.6947 16.6904 12.6809 16.7093 12.6783ZM6.05596 12.6765L6.29268 12.6787C6.31156 12.6813 6.321 12.6951 6.32272 12.7028C6.32529 12.7158 6.32014 12.7348 6.29612 12.7486C5.71433 13.0377 3.4687 14.2952 3.75101 16.9466C3.76302 17.0623 3.67206 17.1607 3.55794 17.1443C3.00532 17.0649 1.58346 16.7576 1.1424 15.8004C0.897845 15.2938 0.897845 14.7069 1.1424 14.2003C1.43072 13.5832 2.12578 13.1585 3.18381 12.9497C3.68408 12.828 5.03472 12.6554 6.29268 12.6787L6.05596 12.6765ZM11.4518 3.83398C13.6906 3.83398 15.4857 5.63782 15.4857 7.89047C15.4857 10.1422 13.6906 11.9478 11.4518 11.9478C9.21304 11.9478 7.4179 10.1422 7.4179 7.89047C7.4179 5.63782 9.21304 3.83398 11.4518 3.83398ZM16.9281 4.51047C19.0905 4.51047 20.7886 6.55683 20.2103 8.83623C19.8199 10.3708 18.4066 11.3901 16.832 11.3487C16.6741 11.3443 16.5188 11.3297 16.3686 11.3038C16.2596 11.2848 16.2047 11.1614 16.2665 11.0699C16.8672 10.1809 17.2095 9.11156 17.2095 7.96366C17.2095 6.7657 16.8354 5.64887 16.1858 4.73314C16.1652 4.70466 16.1498 4.66064 16.1704 4.62785C16.1875 4.60109 16.2193 4.58728 16.2493 4.58038C16.4681 4.5355 16.693 4.51047 16.9281 4.51047ZM6.07258 4.51038C6.3077 4.51038 6.53252 4.53541 6.75219 4.58029C6.78137 4.5872 6.81398 4.60187 6.83114 4.62776C6.85087 4.66056 6.83629 4.70457 6.81569 4.73306C6.16611 5.64879 5.79199 6.76561 5.79199 7.96357C5.79199 9.11147 6.13437 10.1808 6.73503 11.0698C6.79681 11.1613 6.7419 11.2847 6.63292 11.3037C6.48189 11.3305 6.32744 11.3443 6.16955 11.3486C4.59494 11.39 3.18166 10.3707 2.79123 8.83615C2.21202 6.55675 3.91019 4.51038 6.07258 4.51038Z" fill="#1DAD58"/>
</svg>
