<svg width="23" height="23" viewBox="0 0 23 23" fill="none" xmlns="http://www.w3.org/2000/svg">
<g clip-path="url(#clip0_1486_3020)">
<path d="M1.23084 20.289L1.23024 20.2889C0.955456 20.2747 0.78 20.0616 0.78 19.8528V9.84418C0.78 9.61798 0.98373 9.3884 1.29458 9.406C2.36005 9.46659 3.94395 9.60662 5.58054 9.92876C7.19177 10.2459 8.79434 10.7285 10.0017 11.4451V22.1291C7.11352 20.7523 3.14578 20.3894 1.23084 20.289ZM10.2126 22.2324C10.2126 22.2324 10.2126 22.2324 10.2126 22.2324C10.2126 22.2324 10.2126 22.2324 10.2126 22.2324L10.2126 22.2324ZM21.7697 20.2903L21.7696 20.2903C19.8544 20.3908 15.887 20.7539 12.9992 22.1304V11.4448C14.2063 10.7283 15.8087 10.2458 17.4197 9.92859C19.0564 9.60637 20.6403 9.46636 21.7054 9.406C22.0161 9.38841 22.2203 9.61797 22.2204 9.84468V19.8537C22.2204 20.0624 22.045 20.2759 21.7697 20.2903ZM12.9144 11.4959L12.9144 11.4959L12.9144 11.4959ZM11.5 0.78C13.451 0.78 15.0325 2.36152 15.0325 4.3125C15.0325 6.26348 13.451 7.845 11.5 7.845C9.54902 7.845 7.9675 6.26348 7.9675 4.3125C7.9675 2.36152 9.54902 0.78 11.5 0.78Z" stroke="#2B2D32" stroke-width="1.56"/>
</g>
<defs>
<clipPath id="clip0_1486_3020">
<rect width="23" height="23" fill="white"/>
</clipPath>
</defs>
</svg>
