<svg width="41" height="41" viewBox="0 0 41 41" fill="none" xmlns="http://www.w3.org/2000/svg">
<path fill-rule="evenodd" clip-rule="evenodd" d="M7.44821 8.64476C7.45163 8.64476 7.36621 8.7336 7.25859 8.83951C6.84517 9.24097 5.9893 10.0763 5.98067 11.824C5.96709 14.2686 7.57463 18.8076 15.3151 26.5464C23.0197 34.2476 27.5519 35.8739 30.0016 35.8739H30.0375C31.7851 35.8653 32.6188 35.0078 33.022 34.5961C33.145 34.4696 33.244 34.3774 33.3141 34.3193C35.0156 32.6076 35.8868 31.3331 35.8784 30.5166C35.8663 29.6829 34.8294 28.6972 33.3961 27.3339C32.94 26.9 32.4445 26.4285 31.9218 25.9058C30.5671 24.5545 29.8957 24.7851 28.4197 25.3044C26.3783 26.0202 23.5766 26.994 19.2238 22.6394C14.8641 18.2832 15.8395 15.4849 16.5536 13.4435C17.0695 11.9675 17.3053 11.2944 15.9489 9.93797C15.4176 9.40839 14.941 8.90614 14.5019 8.44489C13.1472 7.02014 12.17 5.99001 11.3415 5.97806H11.3278C10.5095 5.97806 9.23855 6.85272 7.43967 8.6516C7.4448 8.64647 7.4465 8.64476 7.44821 8.64476ZM30.0033 38.4364C25.7462 38.4364 20.1958 35.0471 13.5043 28.3589C6.78709 21.6435 3.39263 16.076 3.41811 11.8103C3.43363 8.99156 4.91134 7.54801 5.46655 7.00647C5.49559 6.9706 5.59467 6.87322 5.62884 6.83906C8.07859 4.3876 9.73055 3.39676 11.374 3.41529C13.2822 3.44118 14.6403 4.86935 16.3589 6.67847C16.7843 7.12606 17.2455 7.61293 17.7597 8.12543C20.2539 10.6196 19.5432 12.6542 18.9726 14.2874C18.3508 16.0692 17.8127 17.6067 21.0346 20.8286C24.2599 24.0505 25.7974 23.5124 27.5724 22.8854C29.2073 22.3148 31.2368 21.6008 33.7343 24.0949C34.24 24.6006 34.72 25.0567 35.1625 25.4787C36.9802 27.2058 38.4152 28.5708 38.4394 30.4841C38.4596 32.1156 37.4688 33.7778 35.0224 36.2258L33.9393 35.4912L34.855 36.3864C34.3135 36.9416 32.8716 38.421 30.0512 38.4364H30.0033Z" fill="#142119"/>
</svg>
