<svg width="41" height="41" viewBox="0 0 41 41" fill="none" xmlns="http://www.w3.org/2000/svg">
<path fill-rule="evenodd" clip-rule="evenodd" d="M27.1779 3.41699C32.5489 3.41699 36.1569 7.09503 36.1569 12.5685V28.2784C36.1569 33.7997 32.6599 37.3906 27.2479 37.4248L14.1057 37.4299C8.73471 37.4299 5.125 33.7519 5.125 28.2784V12.5685C5.125 7.04549 8.62196 3.45628 14.034 3.42383L27.1762 3.41699H27.1779ZM27.1779 5.97949L14.0425 5.98633C10.0655 6.01024 7.6875 8.47024 7.6875 12.5685V28.2784C7.6875 32.404 10.0877 34.8674 14.104 34.8674L27.2394 34.8623C31.2164 34.8384 33.5944 32.375 33.5944 28.2784V12.5685C33.5944 8.44291 31.1959 5.97949 27.1779 5.97949ZM26.8483 26.4346C27.5556 26.4346 28.1296 27.0086 28.1296 27.7158C28.1296 28.4231 27.5556 28.9971 26.8483 28.9971H14.5142C13.8069 28.9971 13.2329 28.4231 13.2329 27.7158C13.2329 27.0086 13.8069 26.4346 14.5142 26.4346H26.8483ZM26.8483 19.2826C27.5556 19.2826 28.1296 19.8566 28.1296 20.5639C28.1296 21.2711 27.5556 21.8451 26.8483 21.8451H14.5142C13.8069 21.8451 13.2329 21.2711 13.2329 20.5639C13.2329 19.8566 13.8069 19.2826 14.5142 19.2826H26.8483ZM19.2201 12.1473C19.9274 12.1473 20.5014 12.7213 20.5014 13.4285C20.5014 14.1358 19.9274 14.7098 19.2201 14.7098H14.5137C13.8064 14.7098 13.2324 14.1358 13.2324 13.4285C13.2324 12.7213 13.8064 12.1473 14.5137 12.1473H19.2201Z" fill="#142119"/>
</svg>
