<svg width="41" height="41" viewBox="0 0 41 41" fill="none" xmlns="http://www.w3.org/2000/svg">
<path fill-rule="evenodd" clip-rule="evenodd" d="M20.369 4.96646C23.4461 3.02104 27.5337 2.48359 31.065 3.61526C38.7464 6.09246 41.1309 14.4665 38.9981 21.1297C35.7072 31.5949 21.6521 39.4012 21.0559 39.7286C20.844 39.8459 20.6093 39.9046 20.3747 39.9046C20.14 39.9046 19.9072 39.8478 19.6953 39.7324C19.1029 39.4088 5.15003 31.7179 1.74932 21.1316C1.74743 21.1316 1.74743 21.1297 1.74743 21.1297C-0.387236 14.4646 1.98966 6.08868 9.66348 3.61526C13.2667 2.44953 17.1935 2.96237 20.369 4.96646ZM10.534 6.31766C4.32493 8.31986 2.76556 14.9983 4.45172 20.2649C7.10491 28.5197 17.5871 35.1943 20.3728 36.8464C23.1679 35.1773 33.7258 28.4289 36.2938 20.2725C37.98 15.0001 36.4149 8.32175 30.1964 6.31766C27.1836 5.35063 23.6694 5.93917 21.2433 7.81647C20.7361 8.20631 20.0321 8.21388 19.5212 7.82782C16.9512 5.89565 13.5941 5.32981 10.534 6.31766Z" fill="#142119"/>
</svg>
