<svg width="23" height="23" viewBox="0 0 23 23" fill="none" xmlns="http://www.w3.org/2000/svg">
<path d="M8.75384 19.9081V16.9778C8.75384 16.2298 9.36467 15.6234 10.1182 15.6234H12.8726C13.2344 15.6234 13.5815 15.7661 13.8373 16.0201C14.0932 16.2741 14.2369 16.6186 14.2369 16.9778V19.9081C14.2346 20.2191 14.3575 20.5181 14.5782 20.7388C14.7989 20.9595 15.0992 21.0837 15.4125 21.0837H17.2917C18.1693 21.0859 19.0118 20.7414 19.6332 20.1261C20.2546 19.5108 20.6038 18.6753 20.6038 17.8041V9.45607C20.6038 8.75227 20.2896 8.08467 19.7458 7.63313L13.3531 2.5647C12.2411 1.67603 10.6478 1.70472 9.56901 2.63285L3.32223 7.63313C2.75272 8.07136 2.41233 8.74094 2.39551 9.45607V17.7956C2.39551 19.6115 3.87842 21.0837 5.70767 21.0837H7.54395C8.1946 21.0837 8.72338 20.5625 8.7281 19.9166L8.75384 19.9081Z" fill="#1DAD58"/>
</svg>
