<svg width="23" height="23" viewBox="0 0 23 23" fill="none" xmlns="http://www.w3.org/2000/svg">
<path fill-rule="evenodd" clip-rule="evenodd" d="M13.1448 14.6538C14.2986 14.6538 15.2378 15.5862 15.2378 16.7324V19.6803C15.2378 19.9265 15.4352 20.124 15.6882 20.1297H17.5148C18.9542 20.1297 20.1243 18.974 20.1243 17.5537V9.19321C20.1176 8.70446 19.8848 8.24446 19.4851 7.93875L13.1669 2.89983C12.3187 2.22804 11.1323 2.22804 10.2813 2.90175L4.00614 7.93683C3.59118 8.25212 3.35831 8.71212 3.35352 9.2095V17.5537C3.35352 18.974 4.52364 20.1297 5.96306 20.1297H7.80689C8.0666 20.1297 8.27743 19.9237 8.27743 19.6707C8.27743 19.6151 8.28414 19.5595 8.29564 19.5068V16.7324C8.29564 15.593 9.22906 14.6615 10.3743 14.6538H13.1448ZM17.5148 21.5672H15.671C14.6149 21.5423 13.8003 20.7133 13.8003 19.6803V16.7324C13.8003 16.3788 13.5061 16.0913 13.1448 16.0913H10.3791C10.0254 16.0932 9.73314 16.3817 9.73314 16.7324V19.6707C9.73314 19.7425 9.72356 19.8115 9.70343 19.8767C9.59993 20.8255 8.78918 21.5672 7.80689 21.5672H5.96306C3.7311 21.5672 1.91602 19.7665 1.91602 17.5537V9.20279C1.9256 8.25021 2.36452 7.37812 3.12256 6.80408L9.38527 1.77762C10.7643 0.685123 12.6858 0.685122 14.0619 1.77571L20.3697 6.80696C21.1105 7.37142 21.5494 8.24158 21.5618 9.18267V17.5537C21.5618 19.7665 19.7468 21.5672 17.5148 21.5672Z" fill="#2B2D32"/>
</svg>
