<svg width="41" height="41" viewBox="0 0 41 41" fill="none" xmlns="http://www.w3.org/2000/svg">
<path fill-rule="evenodd" clip-rule="evenodd" d="M20.9258 3.41699C28.697 3.41699 35.0195 9.78737 35.0195 17.6184C35.0195 27.2448 23.9905 36.7295 20.9258 36.7295C17.861 36.7295 6.83203 27.2448 6.83203 17.6184C6.83203 9.78737 13.1546 3.41699 20.9258 3.41699ZM20.9258 5.97949C14.5674 5.97949 9.39453 11.2019 9.39453 17.6184C9.39453 25.7825 19.0022 33.7365 20.9258 34.1602C22.8494 33.7348 32.457 25.7808 32.457 17.6184C32.457 11.2019 27.2842 5.97949 20.9258 5.97949ZM20.9275 11.9587C23.9888 11.9587 26.4796 14.4494 26.4796 17.5125C26.4796 20.5738 23.9888 23.0628 20.9275 23.0628C17.8662 23.0628 15.3754 20.5738 15.3754 17.5125C15.3754 14.4494 17.8662 11.9587 20.9275 11.9587ZM20.9275 14.5212C19.2789 14.5212 17.9379 15.8622 17.9379 17.5125C17.9379 19.161 19.2789 20.5003 20.9275 20.5003C22.576 20.5003 23.9171 19.161 23.9171 17.5125C23.9171 15.8622 22.576 14.5212 20.9275 14.5212Z" fill="#142119"/>
</svg>
