<svg width="41" height="41" viewBox="0 0 41 41" fill="none" xmlns="http://www.w3.org/2000/svg">
<path fill-rule="evenodd" clip-rule="evenodd" d="M19.0956 2.11511C18.773 2.25693 18.4763 2.54541 18.3043 2.88463C18.1716 3.14651 18.1679 3.3643 18.1862 9.79295L18.2051 16.4309L18.3832 16.6978C18.4812 16.8446 18.6868 17.0537 18.8402 17.1623C19.0851 17.3358 19.1857 17.3599 19.6656 17.3599C20.1455 17.3599 20.2461 17.3358 20.491 17.1623C20.6444 17.0537 20.85 16.8446 20.948 16.6978L21.1261 16.4309L21.145 9.79295C21.1633 3.3643 21.1596 3.14651 21.0269 2.88463C20.6507 2.14265 19.8023 1.80458 19.0956 2.11511ZM12.5055 6.725C7.38935 9.18947 3.8155 14.2107 3.09607 19.9455C2.9332 21.2437 2.98371 23.6417 3.19994 24.8773C3.80609 28.3409 5.33023 31.3791 7.69079 33.8293C9.14824 35.3421 10.4861 36.333 12.2918 37.2372C16.9851 39.5872 22.3428 39.5876 27.0394 37.2383C31.3258 35.0943 34.4582 31.2564 35.7596 26.5545C36.1955 24.9796 36.2985 24.1288 36.3 22.0944C36.3013 20.12 36.2547 19.6534 35.9067 18.155C34.7463 13.1593 31.3428 8.88227 26.809 6.72254C26.0887 6.37941 25.5816 6.31436 25.1314 6.50743C24.418 6.81332 24.0368 7.76312 24.3359 8.48956C24.5152 8.92484 24.7809 9.14458 25.6858 9.6056C27.1172 10.3348 28.2231 11.1294 29.2613 12.1745C34.5982 17.5469 34.7063 26.2094 29.5043 31.6598C28.2906 32.9316 27.2167 33.7287 25.6858 34.4943C24.5936 35.0404 23.5984 35.3876 22.3729 35.6501C21.143 35.9135 19.0812 35.9778 17.7972 35.7927C15.271 35.4286 12.8744 34.3603 10.9641 32.747C4.7186 27.4725 4.30595 17.9768 10.0699 12.1745C11.1068 11.1308 12.2286 10.33 13.7229 9.56693C14.5528 9.14321 14.819 8.91783 14.9953 8.48956C15.2944 7.76312 14.9132 6.81332 14.1999 6.50743C13.7528 6.31573 13.2107 6.38534 12.5055 6.725Z" fill="#DA3A4E"/>
</svg>
