<svg width="20" height="20" viewBox="0 0 20 20" fill="none" xmlns="http://www.w3.org/2000/svg">
<path fill-rule="evenodd" clip-rule="evenodd" d="M8.60352 16.7537C9.03519 17.2345 9.58936 17.4987 10.1644 17.4987H10.1652C10.7427 17.4987 11.2994 17.2345 11.7319 16.7529C11.9635 16.497 12.3585 16.4762 12.6144 16.707C12.871 16.9379 12.8919 17.3337 12.661 17.5895C11.9877 18.337 11.1019 18.7487 10.1652 18.7487H10.1635C9.22935 18.7479 8.34519 18.3362 7.67436 17.5887C7.44352 17.3329 7.46436 16.937 7.72102 16.707C7.97769 16.4754 8.37269 16.4962 8.60352 16.7537ZM10.2059 0.832031C13.91 0.832031 16.3984 3.71703 16.3984 6.4112C16.3984 7.79703 16.7509 8.38453 17.125 9.00786C17.495 9.62286 17.9142 10.3212 17.9142 11.6412C17.6234 15.0137 14.1025 15.2887 10.2059 15.2887C6.30919 15.2887 2.78752 15.0137 2.50001 11.6945C2.49752 10.3212 2.91669 9.62286 3.28669 9.00786L3.41731 8.78799C3.73892 8.23525 4.01336 7.63399 4.01336 6.4112C4.01336 3.71703 6.50169 0.832031 10.2059 0.832031ZM10.2059 2.08203C7.29336 2.08203 5.26336 4.3637 5.26336 6.4112C5.26336 8.1437 4.78252 8.94453 4.35752 9.6512C4.01669 10.2187 3.74752 10.667 3.74752 11.6412C3.88669 13.2129 4.92419 14.0387 10.2059 14.0387C15.4584 14.0387 16.5284 13.1762 16.6667 11.587C16.6642 10.667 16.395 10.2187 16.0542 9.6512C15.6292 8.94453 15.1484 8.1437 15.1484 6.4112C15.1484 4.3637 13.1184 2.08203 10.2059 2.08203Z" fill="#142119"/>
</svg>
