<svg width="27" height="27" viewBox="0 0 27 27" fill="none" xmlns="http://www.w3.org/2000/svg">
<path fill-rule="evenodd" clip-rule="evenodd" d="M11.6148 22.6173C12.1975 23.2664 12.9456 23.623 13.7219 23.623H13.723C14.5026 23.623 15.2541 23.2664 15.838 22.6162C16.1508 22.2708 16.684 22.2427 17.0294 22.5543C17.3759 22.8659 17.404 23.4003 17.0924 23.7457C16.1834 24.7548 14.9875 25.3105 13.723 25.3105H13.7208C12.4596 25.3094 11.266 24.7537 10.3604 23.7445C10.0488 23.3992 10.0769 22.8648 10.4234 22.5543C10.7699 22.2415 11.3031 22.2697 11.6148 22.6173ZM13.7779 1.12305C18.7785 1.12305 22.1378 5.0178 22.1378 8.65492C22.1378 10.5258 22.6137 11.3189 23.1188 12.1604C23.6183 12.9907 24.1842 13.9334 24.1842 15.7154C23.7915 20.2683 19.0384 20.6395 13.7779 20.6395C8.5174 20.6395 3.76315 20.2683 3.37501 15.7874C3.37165 13.9334 3.93753 12.9907 4.43703 12.1604L4.61337 11.8636C5.04754 11.1174 5.41803 10.3057 5.41803 8.65492C5.41803 5.0178 8.77728 1.12305 13.7779 1.12305ZM13.7779 2.81055C9.84603 2.81055 7.10553 5.8908 7.10553 8.65492C7.10553 10.9938 6.4564 12.0749 5.88265 13.0289C5.42253 13.795 5.05915 14.4003 5.05915 15.7154C5.24703 17.8372 6.64765 18.952 13.7779 18.952C20.8688 18.952 22.3133 17.7877 22.5 15.6423C22.4967 14.4003 22.1333 13.795 21.6732 13.0289C21.0994 12.0749 20.4503 10.9938 20.4503 8.65492C20.4503 5.8908 17.7098 2.81055 13.7779 2.81055Z" fill="#142119"/>
</svg>
