<svg width="41" height="41" viewBox="0 0 41 41" fill="none" xmlns="http://www.w3.org/2000/svg">
<path fill-rule="evenodd" clip-rule="evenodd" d="M17.5468 34.1695C18.4272 35.1502 19.5574 35.6889 20.7301 35.6889H20.7318C21.9096 35.6889 23.0449 35.1502 23.927 34.1678C24.3995 33.646 25.2051 33.6035 25.7269 34.0743C26.2503 34.5451 26.2928 35.3524 25.822 35.8742C24.4488 37.3987 22.6421 38.2383 20.7318 38.2383H20.7284C18.8232 38.2366 17.0199 37.397 15.6517 35.8725C15.1809 35.3507 15.2234 34.5434 15.7469 34.0743C16.2704 33.6018 17.076 33.6443 17.5468 34.1695ZM20.8147 1.69727C28.3694 1.69727 33.4443 7.58122 33.4443 13.076C33.4443 15.9024 34.1633 17.1006 34.9264 18.3719C35.681 19.6262 36.5359 21.0504 36.5359 23.7426C35.9427 30.6208 28.762 31.1816 20.8147 31.1816C12.8675 31.1816 5.68503 30.6208 5.09866 23.8513C5.09358 21.0504 5.94847 19.6262 6.70308 18.3719L6.96949 17.9235C7.62541 16.7961 8.18512 15.5699 8.18512 13.076C8.18512 7.58122 13.2601 1.69727 20.8147 1.69727ZM20.8147 4.24664C14.8747 4.24664 10.7345 8.9001 10.7345 13.076C10.7345 16.6094 9.75384 18.2427 8.88705 19.684C8.19192 20.8414 7.64295 21.7557 7.64295 23.7426C7.92678 26.948 10.0428 28.6323 20.8147 28.6323C31.5272 28.6323 33.7095 26.8732 33.9916 23.6321C33.9865 21.7557 33.4375 20.8414 32.7424 19.684C31.8756 18.2427 30.895 16.6094 30.895 13.076C30.895 8.9001 26.7548 4.24664 20.8147 4.24664Z" fill="#142119"/>
</svg>
