<svg width="41" height="41" viewBox="0 0 41 41" fill="none" xmlns="http://www.w3.org/2000/svg">
<path fill-rule="evenodd" clip-rule="evenodd" d="M33.892 31.0788C33.892 36.7094 26.1704 37.3603 20.3637 37.3603L19.9482 37.3599C16.2487 37.351 6.83203 37.1174 6.83203 31.0446C6.83203 25.5288 14.2434 24.7917 20.0058 24.7639L20.7793 24.7634C24.4785 24.7724 33.892 25.006 33.892 31.0788ZM20.3637 27.3256C13.0845 27.3256 9.39453 28.5761 9.39453 31.0446C9.39453 33.5353 13.0845 34.7978 20.3637 34.7978C27.6412 34.7978 31.3295 33.5473 31.3295 31.0788C31.3295 28.588 27.6412 27.3256 20.3637 27.3256ZM20.3637 3.41504C25.3657 3.41504 29.4333 7.48429 29.4333 12.4863C29.4333 17.4883 25.3657 21.5558 20.3637 21.5558H20.3091C15.3173 21.5405 11.2737 17.4695 11.2907 12.4812C11.2907 7.48429 15.36 3.41504 20.3637 3.41504ZM20.3637 5.85454C16.7062 5.85454 13.7302 8.82875 13.7302 12.4863C13.7183 16.1319 16.672 19.1044 20.3142 19.118L20.3637 20.3378V19.118C24.0196 19.118 26.9938 16.1421 26.9938 12.4863C26.9938 8.82875 24.0196 5.85454 20.3637 5.85454Z" fill="#142119"/>
</svg>
