<svg width="35" height="35" viewBox="0 0 20 20" fill="none" xmlns="http://www.w3.org/2000/svg">
<path fill-rule="evenodd" clip-rule="evenodd" d="M9.68361 1.68976C9.15418 1.74511 8.58751 1.91594 8.0721 2.17563C6.74866 2.84239 5.83666 4.07956 5.57063 5.56895C5.51038 5.90635 5.51033 6.72934 5.57056 7.06043C5.77624 8.19113 6.26651 9.0836 7.08874 9.82399C7.19291 9.91781 7.32762 10.0295 7.3881 10.0722C7.44859 10.1149 7.49724 10.1606 7.4962 10.1736C7.49518 10.1866 7.37113 10.2463 7.22051 10.3062C6.20764 10.7091 5.33335 11.2757 4.55882 12.031C3.26855 13.2892 2.44795 14.8906 2.18896 16.6558C2.1399 16.9901 2.10046 17.4993 2.10977 17.6783C2.10977 17.6783 2.11715 17.7536 2.11715 17.8204C2.11715 17.9312 2.26228 18.3337 2.71209 18.3337C3.18558 18.3337 3.35333 17.8957 3.35333 17.833C3.35333 17.7063 3.36964 17.5189 3.36964 17.5189C3.5167 14.6864 5.33664 12.2788 8.02175 11.3646C8.66107 11.1469 9.20321 11.053 10.048 11.0134C10.3475 10.9994 10.7044 10.9719 10.8411 10.9522C12.1607 10.7622 13.319 10.0324 14.0644 8.92136C14.9845 7.55008 15.1048 5.79482 14.381 4.30238C13.6804 2.85777 12.3167 1.88678 10.7229 1.69778C10.403 1.65983 9.99956 1.65673 9.68361 1.68976ZM10.828 2.98929C12.194 3.25292 13.2558 4.31897 13.5324 5.7046C13.5923 6.0047 13.5916 6.71286 13.5312 6.9894C13.4604 7.31329 13.3594 7.59345 13.207 7.88829C12.8703 8.53959 12.3466 9.05257 11.673 9.39073C10.761 9.84859 9.59516 9.84937 8.68676 9.39274C7.71019 8.90183 7.04783 8.03102 6.83642 6.96012C6.76275 6.58692 6.76275 6.0166 6.8364 5.67103C7.23098 3.81985 8.994 2.63538 10.828 2.98929ZM14.5492 10.4738C14.2959 10.7342 14.3102 11.0893 14.4095 11.1985C14.6439 11.4563 15.112 11.9086 15.112 11.9086L15.8146 12.6187L15.0383 12.6303C14.3159 12.6412 14.242 12.6463 13.9736 12.7038C12.582 13.002 11.4683 13.9899 10.9969 15.3442C10.8241 15.8406 10.8116 15.9422 10.8001 16.9385C10.8001 16.9385 10.7898 17.1617 10.7898 17.8322C10.7898 17.8838 10.9152 18.3218 11.4005 18.3218C11.9165 18.3218 12.0485 17.9549 12.0485 17.8322C12.0485 17.4814 12.0485 17.1014 12.0485 17.1014C12.0485 16.1543 12.0894 15.9042 12.3211 15.4361C12.7256 14.6189 13.4598 14.0712 14.3617 13.9139C14.5088 13.8883 14.7461 13.8786 15.2297 13.8786H15.8953L15.1556 14.6186C15.1556 14.6186 14.9564 14.818 14.4158 15.3586C14.2216 15.5528 14.2941 16.0346 14.4782 16.1911C14.7149 16.3924 15.1766 16.3733 15.304 16.2459C15.9979 15.5519 16.7894 14.7603 16.7894 14.7603L17.7308 13.8189C18.0313 13.5184 18.0312 13.0312 17.7307 12.7307L16.7891 11.7892C16.7891 11.7892 15.7566 10.7568 15.3034 10.3036C15.2121 10.2123 14.8451 10.1696 14.5492 10.4738Z" fill="#2B2D32"/>
</svg>
