<svg width="41" height="41" viewBox="0 0 41 41" fill="none" xmlns="http://www.w3.org/2000/svg">
<path fill-rule="evenodd" clip-rule="evenodd" d="M19.9714 7.64819C19.8167 7.64819 19.436 7.69069 19.2337 8.09522L16.1301 14.3008C15.6389 15.2816 14.6921 15.9632 13.5975 16.1195L6.64911 17.1207C6.19019 17.1869 6.03382 17.5269 5.98623 17.6697C5.94373 17.8073 5.87574 18.1575 6.19189 18.46L11.2162 23.2872C12.0168 24.0572 12.3805 25.1671 12.1902 26.2532L11.0072 33.069C10.9341 33.4956 11.2009 33.7438 11.3199 33.8288C11.4457 33.924 11.7822 34.1126 12.1987 33.8951L18.4111 30.6741C19.3901 30.1693 20.5561 30.1693 21.5317 30.6741L27.7425 33.8934C28.1606 34.1092 28.4971 33.9206 28.6246 33.8288C28.7436 33.7438 29.0105 33.4956 28.9374 33.069L27.751 26.2532C27.5606 25.1671 27.9243 24.0572 28.7249 23.2872L33.7492 18.46C34.0671 18.1575 33.9991 17.8056 33.9549 17.6697C33.909 17.5269 33.7526 17.1869 33.2937 17.1207L26.3453 16.1195C25.2524 15.9632 24.3057 15.2816 23.8145 14.2991L20.7074 8.09522C20.5068 7.69069 20.1261 7.64819 19.9714 7.64819ZM11.8077 36.5432C11.1057 36.5432 10.4089 36.3223 9.81227 35.8871C8.78224 35.1325 8.27743 33.8866 8.49669 32.6322L9.67969 25.8164C9.72388 25.5631 9.6372 25.3064 9.45023 25.1263L4.42589 20.2991C3.50125 19.4136 3.16981 18.1048 3.56074 16.8895C3.95508 15.6606 4.9987 14.7819 6.28537 14.5983L13.2338 13.5972C13.5023 13.5598 13.7335 13.3949 13.8491 13.1603L16.9544 6.95301C17.5272 5.80911 18.683 5.09863 19.9714 5.09863C21.2598 5.09863 22.4156 5.80911 22.9884 6.95301L26.0955 13.1586C26.2127 13.3949 26.4422 13.5598 26.7091 13.5972L33.6575 14.5983C34.9441 14.7819 35.9878 15.6606 36.3821 16.8895C36.773 18.1048 36.4399 19.4136 35.5152 20.2991L30.4909 25.1263C30.3039 25.3064 30.2189 25.5631 30.2631 25.8147L31.4478 32.6322C31.6654 33.8883 31.1606 35.1342 30.1289 35.8871C29.0835 36.6537 27.7221 36.7574 26.568 36.1557L20.3589 32.9381C20.1159 32.8124 19.8252 32.8124 19.5822 32.9381L13.3732 36.1574C12.8768 36.4157 12.3414 36.5432 11.8077 36.5432Z" fill="#142119"/>
</svg>
