<svg width="42" height="42" viewBox="0 0 42 42" fill="none" xmlns="http://www.w3.org/2000/svg">
<path d="M11.7057 12.1938C13.0503 12.1938 14.3399 11.6594 15.2909 10.7084C16.2415 9.75748 16.7755 8.46779 16.7755 7.12325C16.7751 5.77833 16.241 4.48864 15.2897 3.53804C14.3388 2.58745 13.0491 2.05343 11.7042 2.05371C10.3595 2.05371 9.06993 2.58849 8.11933 3.53944C7.16874 4.49041 6.63472 5.78038 6.635 7.12502C6.63682 8.46928 7.1716 9.75748 8.12222 10.7081C9.07282 11.6583 10.3614 12.1927 11.7057 12.1938ZM11.7057 4.6614C12.3587 4.6614 12.9851 4.92079 13.4468 5.38281C13.9084 5.84446 14.1678 6.47096 14.1678 7.12391C14.1678 7.77685 13.9084 8.40335 13.4464 8.86501C12.9847 9.32666 12.3582 9.58605 11.7053 9.58605C11.0523 9.58605 10.4258 9.32666 9.96419 8.86501C9.50217 8.40299 9.24278 7.77685 9.24278 7.12353C9.24387 6.47089 9.50363 5.84511 9.96528 5.38346C10.4269 4.92181 11.0527 4.66205 11.7057 4.66133L11.7057 4.6614ZM13.795 16.6745H9.61605C8.84699 16.6756 8.10956 16.9815 7.56567 17.5254C7.02179 18.0696 6.71584 18.8071 6.71511 19.5761V22.5418C6.71511 23.2618 6.13159 23.8457 5.41127 23.8457C4.69131 23.8457 4.10742 23.2618 4.10742 22.5418V19.5761C4.10924 18.1158 4.68986 16.7156 5.7227 15.6828C6.75553 14.6496 8.15539 14.0686 9.61607 14.0668H13.795C15.2557 14.0682 16.6563 14.6492 17.689 15.682C18.7218 16.7152 19.3028 18.1155 19.3043 19.5761V22.5417C19.3043 23.2617 18.7208 23.8456 18.0004 23.8456C17.2805 23.8456 16.6966 23.2617 16.6966 22.5417V19.5761C16.6959 18.807 16.3903 18.0692 15.846 17.525C15.3022 16.9811 14.5644 16.6752 13.795 16.6745L13.795 16.6745ZM26.2262 20.2469H26.2258C26.2258 21.5918 26.7603 22.8815 27.7108 23.8325C28.6618 24.7835 29.9515 25.3175 31.2964 25.3175C32.641 25.3175 33.9306 24.7834 34.8816 23.8325C35.8326 22.8815 36.3666 21.5918 36.3666 20.2473C36.3666 18.9024 35.8325 17.6127 34.8816 16.6617C33.9306 15.7107 32.6409 15.1767 31.296 15.1767C29.9518 15.1782 28.6629 15.713 27.7126 16.6636C26.762 17.6142 26.2272 18.9031 26.2257 20.2473L26.2262 20.2469ZM33.759 20.2469C33.759 20.9003 33.4996 21.5264 33.0376 21.9884C32.5759 22.4504 31.9494 22.7098 31.2965 22.7098C30.6431 22.7098 30.0167 22.4504 29.555 21.9887C29.093 21.5267 28.8336 20.9002 28.8336 20.2473C28.8336 19.5943 29.093 18.9678 29.5546 18.5058C30.0167 18.0441 30.6432 17.7844 31.2961 17.7844C31.9491 17.7855 32.5748 18.0452 33.0366 18.5069C33.4982 18.9685 33.758 19.5943 33.7591 20.2473L33.759 20.2469ZM38.8961 32.6996V35.6653C38.8961 36.3852 38.3122 36.9691 37.5923 36.9691C36.872 36.9691 36.2884 36.3852 36.2884 35.6653V32.6999C36.2877 31.9305 35.9818 31.1927 35.4375 30.6489C34.8936 30.1047 34.1558 29.7987 33.3865 29.798H29.2068C28.4374 29.7987 27.6996 30.1047 27.1558 30.6489C26.6115 31.1928 26.3059 31.9306 26.3052 32.6999V35.6653C26.3052 36.3856 25.7213 36.9691 25.0014 36.9691C24.2811 36.9691 23.6975 36.3856 23.6975 35.6653V32.6999C23.699 31.2393 24.28 29.8386 25.3128 28.8059C26.3456 27.7731 27.7462 27.1921 29.2068 27.1903H33.3858C34.8464 27.1921 36.2463 27.7734 37.2791 28.8063C38.312 29.8391 38.8925 31.2393 38.8944 32.7L38.8961 32.6996ZM21.216 33.736C21.216 34.082 21.0785 34.4138 20.834 34.6582C20.5895 34.9027 20.2577 35.0399 19.9121 35.0399H16.913C15.1846 35.0381 13.5279 34.3505 12.3055 33.1285C11.0835 31.9062 10.3959 30.2491 10.3938 28.5206V27.7643V27.7647C10.3938 27.0444 10.9777 26.4608 11.6976 26.4608C12.418 26.4608 13.0015 27.0444 13.0015 27.7647V28.521V28.5206C13.0029 29.5579 13.4151 30.552 14.1485 31.2855C14.8819 32.0186 15.8762 32.4312 16.913 32.4322H19.9121C20.2577 32.4325 20.5895 32.5697 20.834 32.8145C21.0785 33.059 21.2156 33.3908 21.2156 33.7364L21.216 33.736ZM19.3385 5.41651C19.3385 4.69656 19.922 4.11267 20.6423 4.11267H26.0924C27.8208 4.11449 29.4779 4.80206 30.6999 6.02438C31.9219 7.24637 32.6095 8.90346 32.6116 10.6319V11.2576C32.6116 11.9779 32.0277 12.5615 31.3078 12.5615C30.5874 12.5615 30.0039 11.9779 30.0039 11.2576V10.6319C30.0028 9.59468 29.5903 8.6005 28.8569 7.86737C28.1235 7.13396 27.1292 6.72138 26.0924 6.72036H20.6405C20.2946 6.72036 19.9628 6.58284 19.7183 6.33801C19.4735 6.09353 19.3363 5.76175 19.3367 5.41579L19.3385 5.41651Z" fill="#142119"/>
</svg>
