<svg width="26" height="26" viewBox="0 0 26 26" fill="none" xmlns="http://www.w3.org/2000/svg">
<path fill-rule="evenodd" clip-rule="evenodd" d="M18.0282 3.25C21.6108 3.25 24.5249 6.16417 24.5249 9.74783V17.5229C24.5249 21.1055 21.6108 24.0208 18.0282 24.0208H8.66385C5.08127 24.0208 2.16602 21.1055 2.16602 17.5229V9.74783C2.16602 6.16417 5.08127 3.25 8.66385 3.25H18.0282ZM18.0282 4.875H8.66385C5.97718 4.875 3.79102 7.06117 3.79102 9.74783V17.5229C3.79102 20.2096 5.97718 22.3958 8.66385 22.3958H18.0282C20.7148 22.3958 22.8999 20.2096 22.8999 17.5229V17.2196L19.3272 17.2202C17.2721 17.2202 15.5995 15.5487 15.5984 13.4947C15.5984 11.4385 17.271 9.76582 19.3272 9.76473L22.8999 9.76408V9.74783C22.8999 7.06117 20.7148 4.875 18.0282 4.875ZM22.8999 11.3891L19.3272 11.3897C18.167 11.3908 17.2234 12.3344 17.2234 13.4936C17.2234 14.6517 18.168 15.5952 19.3272 15.5952L22.8999 15.5946V11.3891ZM19.8229 12.6139C20.2714 12.6139 20.6354 12.9779 20.6354 13.4264C20.6354 13.8749 20.2714 14.2389 19.8229 14.2389H19.4849C19.0364 14.2389 18.6724 13.8749 18.6724 13.4264C18.6724 12.9779 19.0364 12.6139 19.4849 12.6139H19.8229ZM13.7414 8.16628C14.1899 8.16628 14.5539 8.53027 14.5539 8.97878C14.5539 9.42728 14.1899 9.79128 13.7414 9.79128H7.89252C7.44402 9.79128 7.08002 9.42728 7.08002 8.97878C7.08002 8.53027 7.44402 8.16628 7.89252 8.16628H13.7414Z" fill="#2B2D32"/>
</svg>
