<svg width="41" height="41" viewBox="0 0 41 41" fill="none" xmlns="http://www.w3.org/2000/svg">
<path fill-rule="evenodd" clip-rule="evenodd" d="M28.2837 5.09863C33.9043 5.09863 38.4761 9.67051 38.4761 15.2927V27.4906C38.4761 33.1112 33.9043 37.6847 28.2837 37.6847H13.5925C7.97202 37.6847 3.39844 33.1112 3.39844 27.4906V15.2927C3.39844 9.67051 7.97202 5.09863 13.5925 5.09863H28.2837ZM28.2837 7.64801H13.5925C9.37757 7.64801 5.94781 11.0778 5.94781 15.2927V27.4906C5.94781 31.7056 9.37757 35.1354 13.5925 35.1354H28.2837C32.4987 35.1354 35.9268 31.7056 35.9268 27.4906V27.0148L30.3217 27.0158C27.0976 27.0158 24.4734 24.3933 24.4717 21.1709C24.4717 17.9451 27.0959 15.3209 30.3217 15.3192L35.9268 15.3182V15.2927C35.9268 11.0778 32.4987 7.64801 28.2837 7.64801ZM35.9268 17.8676L30.3217 17.8686C28.5015 17.8703 27.0211 19.3507 27.0211 21.1692C27.0211 22.9861 28.5032 24.4664 30.3217 24.4664L35.9268 24.4654V17.8676ZM31.0994 19.7892C31.8031 19.7892 32.3741 20.3602 32.3741 21.0638C32.3741 21.7675 31.8031 22.3385 31.0994 22.3385H30.5692C29.8655 22.3385 29.2945 21.7675 29.2945 21.0638C29.2945 20.3602 29.8655 19.7892 30.5692 19.7892H31.0994ZM21.5585 12.8115C22.2621 12.8115 22.8332 13.3826 22.8332 14.0862C22.8332 14.7898 22.2621 15.3609 21.5585 15.3609H12.3824C11.6788 15.3609 11.1077 14.7898 11.1077 14.0862C11.1077 13.3826 11.6788 12.8115 12.3824 12.8115H21.5585Z" fill="#2B2D32"/>
</svg>
